<svg width="20" height="20" viewBox="0 0 20 20" fill="none" xmlns="http://www.w3.org/2000/svg">
<path d="M6.1 19.213C4.88334 18.6877 3.825 17.975 2.925 17.075C2.025 16.175 1.31267 15.1167 0.788001 13.9C0.263335 12.6833 0.000667933 11.3833 1.26582e-06 10C-0.000665401 8.61667 0.262001 7.31667 0.788001 6.1C1.314 4.88334 2.02633 3.825 2.925 2.925C3.82367 2.025 4.882 1.31267 6.1 0.788001C7.318 0.263335 8.618 0.000667933 10 1.26582e-06C11.382 -0.000665401 12.682 0.262001 13.9 0.788001C15.118 1.314 16.1763 2.02633 17.075 2.925C17.9737 3.82367 18.6863 4.882 19.213 6.1C19.7397 7.318 20.002 8.618 20 10C19.998 11.382 19.7353 12.682 19.212 13.9C18.6887 15.118 17.9763 16.1763 17.075 17.075C16.1737 17.9737 15.1153 18.6863 13.9 19.213C12.6847 19.7397 11.3847 20.002 10 20C8.61533 19.998 7.31534 19.7363 6.1 19.213ZM14.925 16.325C15.1917 16.125 15.4417 15.9083 15.675 15.675C15.9083 15.4417 16.125 15.1917 16.325 14.925L5.075 3.675C4.80833 3.875 4.55833 4.09167 4.325 4.325C4.09167 4.55833 3.875 4.80833 3.675 5.075L14.925 16.325Z" fill="black"/>
</svg>
