<svg width="14" height="14" viewBox="0 0 14 14" fill="none" xmlns="http://www.w3.org/2000/svg">
<path d="M13.4876 0.51239C13.1594 0.184307 12.7144 0 12.2503 0C11.7863 0 11.3412 0.184307 11.013 0.51239L4.37512 7.15032V9.62488H6.84968L13.4876 2.98696C13.8157 2.65877 14 2.21372 14 1.74967C14 1.28562 13.8157 0.840572 13.4876 0.51239Z" fill="black"/>
<path fill-rule="evenodd" clip-rule="evenodd" d="M0 3.49972C0 3.03558 0.184379 2.59045 0.512577 2.26225C0.840774 1.93405 1.28591 1.74967 1.75005 1.74967H5.25014C5.48221 1.74967 5.70478 1.84186 5.86888 2.00596C6.03297 2.17006 6.12516 2.39263 6.12516 2.6247C6.12516 2.85677 6.03297 3.07933 5.86888 3.24343C5.70478 3.40753 5.48221 3.49972 5.25014 3.49972H1.75005V12.25H10.5003V8.74986C10.5003 8.51779 10.5925 8.29522 10.7566 8.13113C10.9207 7.96703 11.1432 7.87484 11.3753 7.87484C11.6074 7.87484 11.8299 7.96703 11.994 8.13113C12.1581 8.29522 12.2503 8.51779 12.2503 8.74986V12.25C12.2503 12.7141 12.0659 13.1592 11.7378 13.4874C11.4096 13.8156 10.9644 14 10.5003 14H1.75005C1.28591 14 0.840774 13.8156 0.512577 13.4874C0.184379 13.1592 0 12.7141 0 12.25V3.49972Z" fill="black"/>
</svg>
