<svg width="20" height="19" viewBox="0 0 20 19" fill="none" xmlns="http://www.w3.org/2000/svg">
<path fill-rule="evenodd" clip-rule="evenodd" d="M18.979 1.3694C19.1184 1.21504 19.1943 1.01088 19.1907 0.799921C19.1871 0.588965 19.1042 0.38769 18.9596 0.238499C18.815 0.0893077 18.6198 0.00384893 18.4153 0.000126862C18.2108 -0.0035952 18.0128 0.07471 17.8632 0.218545L1.02108 17.59C0.943519 17.6645 0.881307 17.7544 0.838157 17.8543C0.795008 17.9542 0.771806 18.062 0.769936 18.1714C0.768065 18.2807 0.787565 18.3893 0.827271 18.4907C0.866977 18.5921 0.926077 18.6842 1.00104 18.7615C1.07601 18.8388 1.16531 18.8998 1.26361 18.9407C1.36192 18.9817 1.46721 19.0018 1.57321 18.9999C1.67922 18.9979 1.78376 18.974 1.8806 18.9295C1.97744 18.885 2.0646 18.8208 2.13687 18.7408L5.3316 15.4457C6.71897 16.1058 8.30739 16.5368 10 16.5368C12.7558 16.5368 15.2337 15.3957 17.019 13.9821C17.9137 13.2743 18.6474 12.4882 19.1611 11.7239C19.6663 10.9725 20 10.1843 20 9.47969C20 8.77506 19.6663 7.98683 19.1611 7.2366C18.6474 6.47117 17.9137 5.68512 17.019 4.97832C16.734 4.75176 16.4323 4.53426 16.1137 4.3258L18.979 1.3694ZM13.2947 7.23443L12.1369 8.42655C12.3479 8.88239 12.4168 9.39453 12.334 9.89242C12.2512 10.3903 12.0207 10.8495 11.6744 11.2067C11.3281 11.5639 10.8829 11.8016 10.4002 11.887C9.91745 11.9724 9.42092 11.9014 8.97897 11.6837L7.82107 12.878C8.58016 13.3964 9.48964 13.6282 10.3955 13.5342C11.3013 13.4402 12.1477 13.0261 12.7915 12.3622C13.4352 11.6982 13.8367 10.8251 13.9278 9.89081C14.019 8.95652 13.7942 8.01846 13.2916 7.23552" fill="black"/>
<path d="M10.7052 5.47337C10.7486 5.48174 10.7932 5.4792 10.8353 5.46597C10.8775 5.45274 10.9159 5.4292 10.9473 5.39737L13 3.28023C13.0319 3.24786 13.055 3.20742 13.067 3.16295C13.079 3.11848 13.0795 3.07154 13.0684 3.02681C13.0574 2.98209 13.0351 2.94114 13.0039 2.90807C12.9726 2.875 12.9336 2.85096 12.8905 2.83834C11.9498 2.56468 10.9773 2.42478 9.99998 2.42251C7.2442 2.42251 4.76631 3.5636 2.98105 4.9772C2.08631 5.68509 1.35263 6.47114 0.837893 7.23548C0.332631 7.9868 0 8.77503 0 9.47966C0 10.1843 0.333684 10.9725 0.837893 11.7227C1.33892 12.4478 1.93072 13.1012 2.59789 13.6662C2.64782 13.7087 2.71141 13.7305 2.77611 13.727C2.8408 13.7236 2.90191 13.6953 2.94736 13.6477L6.04209 10.4557C6.07296 10.4233 6.09577 10.3836 6.1086 10.3402C6.12143 10.2967 6.12389 10.2507 6.11578 10.206C6.07367 9.97076 6.05262 9.72865 6.05262 9.47966C6.05257 8.88335 6.17951 8.29431 6.42447 7.75418C6.66944 7.21404 7.02644 6.736 7.47025 6.35385C7.91405 5.9717 8.43383 5.69476 8.99283 5.54261C9.55183 5.39047 10.1364 5.36683 10.7052 5.47337Z" fill="black"/>
</svg>
