<svg width="20" height="20" viewBox="0 0 20 20" fill="none" xmlns="http://www.w3.org/2000/svg">
<path d="M9.1665 14.1667H10.8332V9.16667H9.1665V14.1667ZM10.594 7.26084C10.7534 7.10084 10.8332 6.90278 10.8332 6.66667C10.8332 6.43056 10.7532 6.23278 10.5932 6.07334C10.4332 5.91389 10.2354 5.83389 9.99984 5.83334C9.76428 5.83278 9.5665 5.91278 9.4065 6.07334C9.2465 6.23389 9.1665 6.43167 9.1665 6.66667C9.1665 6.90167 9.2465 7.09973 9.4065 7.26084C9.5665 7.42195 9.76428 7.50167 9.99984 7.50001C10.2354 7.49834 10.4334 7.41834 10.594 7.26001M9.99984 18.3333C8.84706 18.3333 7.76373 18.1145 6.74984 17.6767C5.73595 17.2389 4.854 16.6453 4.10401 15.8958C3.354 15.1464 2.76039 14.2645 2.32317 13.25C1.88595 12.2356 1.66706 11.1522 1.6665 10C1.66595 8.84778 1.88484 7.76445 2.32317 6.75001C2.76151 5.73556 3.35512 4.85362 4.10401 4.10417C4.85289 3.35473 5.73484 2.76112 6.74984 2.32334C7.76484 1.88556 8.84817 1.66667 9.99984 1.66667C11.1515 1.66667 12.2348 1.88556 13.2498 2.32334C14.2648 2.76112 15.1468 3.35473 15.8957 4.10417C16.6446 4.85362 17.2384 5.73556 17.6773 6.75001C18.1162 7.76445 18.3348 8.84778 18.3332 10C18.3315 11.1522 18.1126 12.2356 17.6765 13.25C17.2404 14.2645 16.6468 15.1464 15.8957 15.8958C15.1446 16.6453 14.2626 17.2392 13.2498 17.6775C12.2371 18.1158 11.1537 18.3344 9.99984 18.3333Z" fill="#767676"/>
</svg>
