<svg width="24" height="24" viewBox="0 0 24 24" fill="none" xmlns="http://www.w3.org/2000/svg">
<path d="M15.5 19.925L11.25 15.675L12.65 14.275L15.5 17.125L21.15 11.475L22.55 12.875L15.5 19.925ZM21 10H19V5H17V8H7V5H5V19H11V21H5C4.45 21 3.97933 20.8043 3.588 20.413C3.19667 20.0217 3.00067 19.5507 3 19V5C3 4.45 3.196 3.97933 3.588 3.588C3.98 3.19667 4.45067 3.00067 5 3H9.175C9.35833 2.41667 9.71667 1.93767 10.25 1.563C10.7833 1.18833 11.3667 1.00067 12 1C12.6667 1 13.2627 1.18767 13.788 1.563C14.3133 1.93833 14.6673 2.41733 14.85 3H19C19.55 3 20.021 3.196 20.413 3.588C20.805 3.98 21.0007 4.45067 21 5V10ZM12.713 4.713C12.9043 4.521 13 4.28333 13 4C13 3.71667 12.904 3.47933 12.712 3.288C12.52 3.09667 12.2827 3.00067 12 3C11.7173 2.99933 11.48 3.09533 11.288 3.288C11.096 3.48067 11 3.718 11 4C11 4.282 11.096 4.51967 11.288 4.713C11.48 4.90633 11.7173 5.002 12 5C12.2827 4.998 12.5203 4.903 12.713 4.713Z" fill="black"/>
</svg>
