<svg width="16" height="16" viewBox="0 0 16 16" fill="none" xmlns="http://www.w3.org/2000/svg">
<path fill-rule="evenodd" clip-rule="evenodd" d="M10.6352 2.53685C10.8196 2.34583 11.0403 2.19346 11.2843 2.08864C11.5284 1.98383 11.7908 1.92865 12.0563 1.92635C12.3219 1.92404 12.5853 1.97464 12.8311 2.0752C13.0769 2.17577 13.3002 2.32427 13.4879 2.51206C13.6757 2.69984 13.8242 2.92315 13.9248 3.16894C14.0254 3.41473 14.076 3.67809 14.0737 3.94365C14.0713 4.20921 14.0162 4.47165 13.9114 4.71566C13.8065 4.95966 13.6542 5.18035 13.4632 5.36485L10.4632 8.36485C10.0881 8.73979 9.57948 8.95042 9.04915 8.95042C8.51882 8.95042 8.01021 8.73979 7.63515 8.36485C7.44655 8.18269 7.19395 8.08189 6.93175 8.08417C6.66955 8.08645 6.41874 8.19162 6.23333 8.37703C6.04793 8.56244 5.94276 8.81325 5.94048 9.07545C5.9382 9.33764 6.03899 9.59025 6.22115 9.77885C6.97126 10.5287 7.9885 10.95 9.04915 10.95C10.1098 10.95 11.127 10.5287 11.8772 9.77885L14.8772 6.77885C15.6058 6.02444 16.009 5.01403 15.9998 3.96524C15.9907 2.91646 15.5701 1.91321 14.8284 1.17157C14.0868 0.429941 13.0835 0.00926489 12.0348 0.00015121C10.986 -0.00896247 9.97556 0.394215 9.22115 1.12285L7.72115 2.62285C7.62564 2.71509 7.54946 2.82544 7.49705 2.94744C7.44464 3.06945 7.41706 3.20067 7.4159 3.33345C7.41475 3.46623 7.44005 3.59791 7.49033 3.7208C7.54061 3.8437 7.61487 3.95535 7.70876 4.04924C7.80265 4.14314 7.9143 4.21739 8.0372 4.26767C8.16009 4.31795 8.29177 4.34325 8.42455 4.3421C8.55733 4.34094 8.68855 4.31336 8.81056 4.26095C8.93256 4.20854 9.04291 4.13236 9.13515 4.03685L10.6352 2.53685ZM5.63515 7.53685C6.01021 7.16191 6.51882 6.95127 7.04915 6.95127C7.57948 6.95127 8.0881 7.16191 8.46315 7.53685C8.5554 7.63236 8.66574 7.70854 8.78775 7.76095C8.90975 7.81336 9.04097 7.84094 9.17375 7.8421C9.30653 7.84325 9.43821 7.81795 9.56111 7.76767C9.684 7.71739 9.79565 7.64314 9.88955 7.54924C9.98344 7.45535 10.0577 7.3437 10.108 7.2208C10.1583 7.09791 10.1836 6.96623 10.1824 6.83345C10.1812 6.70067 10.1537 6.56945 10.1013 6.44744C10.0488 6.32544 9.97266 6.21509 9.87715 6.12285C9.12704 5.37296 8.10981 4.9517 7.04915 4.9517C5.9885 4.9517 4.97126 5.37296 4.22115 6.12285L1.22115 9.12285C0.839112 9.49183 0.534383 9.93321 0.324747 10.4212C0.115111 10.9092 0.00476629 11.4341 0.000151027 11.9652C-0.00446424 12.4964 0.0967426 13.0231 0.297866 13.5147C0.49899 14.0062 0.796002 14.4529 1.17157 14.8284C1.54714 15.204 1.99375 15.501 2.48534 15.7021C2.97692 15.9033 3.50364 16.0045 4.03476 15.9998C4.56588 15.9952 5.09075 15.8849 5.57877 15.6753C6.06679 15.4656 6.50817 15.1609 6.87715 14.7788L8.37715 13.2788C8.47266 13.1866 8.54884 13.0763 8.60125 12.9543C8.65366 12.8322 8.68125 12.701 8.6824 12.5682C8.68356 12.4355 8.65825 12.3038 8.60797 12.1809C8.55769 12.058 8.48344 11.9463 8.38955 11.8525C8.29565 11.7586 8.184 11.6843 8.06111 11.634C7.93821 11.5837 7.80653 11.5584 7.67375 11.5596C7.54097 11.5608 7.40975 11.5883 7.28775 11.6407C7.16574 11.6932 7.0554 11.7693 6.96315 11.8648L5.46315 13.3648C5.27866 13.5559 5.05797 13.7082 4.81396 13.8131C4.56995 13.9179 4.30751 13.973 4.04196 13.9753C3.7764 13.9777 3.51304 13.9271 3.26724 13.8265C3.02145 13.7259 2.79815 13.5774 2.61036 13.3896C2.42258 13.2019 2.27407 12.9785 2.17351 12.7328C2.07295 12.487 2.02234 12.2236 2.02465 11.958C2.02696 11.6925 2.08213 11.43 2.18695 11.186C2.29177 10.942 2.44413 10.7213 2.63515 10.5368L5.63515 7.53685Z" fill="#363636"/>
</svg>
