<svg width="24" height="24" viewBox="0 0 24 24" fill="none" xmlns="http://www.w3.org/2000/svg">
<path d="M4.00019 18V7.09999L2.45019 3.74999C2.33352 3.49999 2.32519 3.24565 2.42519 2.98699C2.52519 2.72832 2.70019 2.54099 2.95019 2.42499C3.20019 2.30899 3.45452 2.29665 3.71319 2.38799C3.97185 2.47932 4.15919 2.64999 4.27519 2.89999L6.20019 7.04999H17.8002L19.7252 2.89999C19.8419 2.64999 20.0295 2.47499 20.2882 2.37499C20.5469 2.27499 20.8009 2.29165 21.0502 2.42499C21.3002 2.54165 21.4752 2.72932 21.5752 2.98799C21.6752 3.24665 21.6669 3.50065 21.5502 3.74999L20.0002 7.09999V18C20.0002 18.55 19.8045 19.021 19.4132 19.413C19.0219 19.805 18.5509 20.0007 18.0002 20H6.00019C5.45019 20 4.97952 19.8043 4.58819 19.413C4.19685 19.0217 4.00085 18.5507 4.00019 18ZM10.0002 13H14.0002C14.2835 13 14.5212 12.904 14.7132 12.712C14.9052 12.52 15.0009 12.2827 15.0002 12C14.9995 11.7173 14.9035 11.48 14.7122 11.288C14.5209 11.096 14.2835 11 14.0002 11H10.0002C9.71685 11 9.47952 11.096 9.28819 11.288C9.09685 11.48 9.00085 11.7173 9.00019 12C8.99952 12.2827 9.09552 12.5203 9.28819 12.713C9.48085 12.9057 9.71819 13.0013 10.0002 13Z" fill="black"/>
</svg>
