<svg width="24" height="24" viewBox="0 0 24 24" fill="none" xmlns="http://www.w3.org/2000/svg">
<g clip-path="url(#clip0_29_223)">
<path fill-rule="evenodd" clip-rule="evenodd" d="M23.9443 10.845C24.2648 14.0115 23.3142 17.1756 21.3018 19.6412C19.2893 22.1068 16.3798 23.6721 13.2133 23.9925C10.0468 24.3129 6.88275 23.3624 4.41712 21.3499C1.95148 19.3375 0.386279 16.428 0.065831 13.2615C0.0344028 12.9647 0.122156 12.6676 0.309786 12.4355C0.497417 12.2035 0.769554 12.0554 1.06633 12.024C1.36311 11.9926 1.66022 12.0803 1.89229 12.268C2.12437 12.4556 2.2724 12.7277 2.30383 13.0245C2.47708 14.6648 3.06364 16.2343 4.00862 17.5862C4.95359 18.9382 6.22609 20.0282 7.70703 20.7545C9.18798 21.4807 10.829 21.8193 12.4764 21.7387C14.1239 21.6581 15.724 21.1609 17.1269 20.2935C18.5299 19.4262 19.6899 18.2171 20.4984 16.7794C21.3068 15.3417 21.7373 13.7223 21.7496 12.073C21.7619 10.4236 21.3555 8.79804 20.5686 7.34846C19.7816 5.89888 18.6397 4.67264 17.2498 3.7845V6.375C17.2498 6.67337 17.1313 6.95952 16.9203 7.1705C16.7093 7.38147 16.4232 7.5 16.1248 7.5C15.8265 7.5 15.5403 7.38147 15.3293 7.1705C15.1184 6.95952 14.9998 6.67337 14.9998 6.375V0H21.3748C21.6732 0 21.9593 0.118526 22.1703 0.329505C22.3813 0.540483 22.4998 0.826631 22.4998 1.125C22.4998 1.42337 22.3813 1.70952 22.1703 1.9205C21.9593 2.13147 21.6732 2.25 21.3748 2.25H18.9958C20.3856 3.2472 21.5461 4.52998 22.3996 6.01236C23.253 7.49473 23.7797 9.14243 23.9443 10.845ZM10.4998 3C10.8977 3 11.2792 2.84196 11.5605 2.56066C11.8418 2.27936 11.9998 1.89782 11.9998 1.5C11.9998 1.10218 11.8418 0.720644 11.5605 0.43934C11.2792 0.158035 10.8977 0 10.4998 0C10.102 0 9.72048 0.158035 9.43917 0.43934C9.15787 0.720644 8.99983 1.10218 8.99983 1.5C8.99983 1.89782 9.15787 2.27936 9.43917 2.56066C9.72048 2.84196 10.102 3 10.4998 3ZM7.12483 3.375C7.12483 3.77282 6.9668 4.15436 6.68549 4.43566C6.40419 4.71696 6.02266 4.875 5.62483 4.875C5.22701 4.875 4.84548 4.71696 4.56417 4.43566C4.28287 4.15436 4.12483 3.77282 4.12483 3.375C4.12483 2.97718 4.28287 2.59564 4.56417 2.31434C4.84548 2.03304 5.22701 1.875 5.62483 1.875C6.02266 1.875 6.40419 2.03304 6.68549 2.31434C6.9668 2.59564 7.12483 2.97718 7.12483 3.375ZM2.24983 9C2.64766 9 3.02919 8.84196 3.31049 8.56066C3.5918 8.27936 3.74983 7.89782 3.74983 7.5C3.74983 7.10218 3.5918 6.72064 3.31049 6.43934C3.02919 6.15804 2.64766 6 2.24983 6C1.85201 6 1.47048 6.15804 1.18917 6.43934C0.907866 6.72064 0.749831 7.10218 0.749831 7.5C0.749831 7.89782 0.907866 8.27936 1.18917 8.56066C1.47048 8.84196 1.85201 9 2.24983 9Z" fill="#999999"/>
</g>
<defs>
<clipPath id="clip0_29_223">
<rect width="24" height="24" fill="white"/>
</clipPath>
</defs>
</svg>
