<svg width="32" height="32" viewBox="0 0 32 32" fill="none" xmlns="http://www.w3.org/2000/svg">
<path d="M4 32C2.9 32 1.95866 31.598 1.176 30.794C0.393333 29.9899 0.00133333 29.0222 0 27.8909V23.7817C0 23.1996 0.192 22.712 0.576 22.3189C0.959999 21.9257 1.43467 21.7285 2 21.7271C2.56533 21.7258 3.04066 21.923 3.426 22.3189C3.81133 22.7147 4.00266 23.2023 4 23.7817V27.8909H28V23.7817C28 23.1996 28.192 22.712 28.576 22.3189C28.96 21.9257 29.4346 21.7285 30 21.7271C30.5653 21.7258 31.0406 21.923 31.426 22.3189C31.8113 22.7147 32.0026 23.2023 32 23.7817V27.8909C32 29.0209 31.6086 29.9886 30.826 30.794C30.0433 31.5994 29.1013 32.0014 28 32H4ZM14 7.03694L10.25 10.8893C9.84999 11.3002 9.37533 11.4974 8.82599 11.481C8.27666 11.4645 7.80133 11.2502 7.39999 10.8379C7.03333 10.427 6.84133 9.94759 6.82399 9.3997C6.80666 8.85181 6.99866 8.37242 7.39999 7.9615L14.6 0.565038C14.8 0.359581 15.0167 0.214391 15.25 0.129469C15.4833 0.0445468 15.7333 0.00140132 16 3.16092e-05C16.2667 -0.00133811 16.5167 0.0418073 16.75 0.129469C16.9833 0.217131 17.2 0.36232 17.4 0.565038L24.6 7.9615C25 8.37242 25.192 8.85181 25.176 9.3997C25.16 9.94759 24.968 10.427 24.6 10.8379C24.2 11.2488 23.7253 11.4632 23.176 11.481C22.6266 11.4988 22.1513 11.3016 21.75 10.8893L18 7.03694V21.7271C18 22.3093 17.808 22.7976 17.424 23.192C17.04 23.5865 16.5653 23.7831 16 23.7817C15.4347 23.7803 14.96 23.5831 14.576 23.19C14.192 22.7969 14 22.3093 14 21.7271V7.03694Z" fill="black"/>
</svg>
