<svg width="35" height="35" viewBox="0 0 35 35" fill="none" xmlns="http://www.w3.org/2000/svg">
<path d="M24.7917 26.25C25.5652 26.25 26.3071 26.5573 26.8541 27.1043C27.4011 27.6513 27.7083 28.3931 27.7083 29.1667C27.7083 29.9402 27.4011 30.6821 26.8541 31.2291C26.3071 31.776 25.5652 32.0833 24.7917 32.0833C24.0181 32.0833 23.2763 31.776 22.7293 31.2291C22.1823 30.6821 21.875 29.9402 21.875 29.1667C21.875 27.5479 23.1729 26.25 24.7917 26.25ZM1.45834 2.91667H6.22709L7.59793 5.83333H29.1667C29.5534 5.83333 29.9244 5.98698 30.1979 6.26047C30.4714 6.53396 30.625 6.90489 30.625 7.29167C30.625 7.53958 30.5521 7.7875 30.45 8.02083L25.2292 17.4563C24.7333 18.3458 23.7708 18.9583 22.6771 18.9583H11.8125L10.5 21.3354L10.4563 21.5104C10.4563 21.6071 10.4947 21.6998 10.563 21.7682C10.6314 21.8366 10.7241 21.875 10.8208 21.875H27.7083V24.7917H10.2083C9.43479 24.7917 8.69293 24.4844 8.14595 23.9374C7.59897 23.3904 7.29168 22.6485 7.29168 21.875C7.29168 21.3646 7.42293 20.8833 7.64168 20.475L9.62501 16.9021L4.37501 5.83333H1.45834V2.91667ZM10.2083 26.25C10.9819 26.25 11.7238 26.5573 12.2707 27.1043C12.8177 27.6513 13.125 28.3931 13.125 29.1667C13.125 29.9402 12.8177 30.6821 12.2707 31.2291C11.7238 31.776 10.9819 32.0833 10.2083 32.0833C9.43479 32.0833 8.69293 31.776 8.14595 31.2291C7.59897 30.6821 7.29168 29.9402 7.29168 29.1667C7.29168 27.5479 8.58959 26.25 10.2083 26.25ZM23.3333 16.0417L27.3875 8.75H8.95418L12.3958 16.0417H23.3333Z" fill="#525252"/>
</svg>
