<svg width="27" height="27" viewBox="0 0 27 27" fill="none" xmlns="http://www.w3.org/2000/svg">
<path d="M6.16015 0C4.99708 0 4.01954 5.86733e-08 3.24415 0.103809C2.42169 0.214538 1.66985 0.459527 1.06477 1.06439C0.459692 1.66925 0.214615 2.42082 0.103846 3.24299C5.86733e-08 4.0181 0 4.99528 0 6.15794V6.29774C0 7.4604 5.86733e-08 8.43759 0.103846 9.21269C0.214615 10.0349 0.459692 10.7864 1.06477 11.3913C1.66985 11.9962 2.42169 12.2411 3.24415 12.3519C4.01954 12.4557 4.99708 12.4557 6.16015 12.4557H6.3C7.46308 12.4557 8.44062 12.4557 9.216 12.3519C10.0385 12.2411 10.7903 11.9962 11.3954 11.3913C12.0005 10.7864 12.2455 10.0349 12.3563 9.21269C12.4602 8.43759 12.4602 7.4604 12.4602 6.29774V6.15933C12.4602 4.99667 12.4602 4.01948 12.3563 3.24437C12.2455 2.42221 12.0005 1.67063 11.3954 1.06577C10.7903 0.460911 10.0385 0.215922 9.216 0.105193C8.44062 0.00138408 7.46308 0.00138402 6.3 0.00138402L6.16015 0ZM20.6986 0C19.5355 0 18.558 5.86733e-08 17.7826 0.103809C16.9602 0.214538 16.2083 0.459527 15.6032 1.06439C14.9982 1.66925 14.7531 2.42082 14.6423 3.24299C14.5385 4.0181 14.5385 4.99528 14.5385 6.15794V6.29774C14.5385 7.4604 14.5385 8.43759 14.6423 9.21269C14.7531 10.0349 14.9982 10.7864 15.6032 11.3913C16.2083 11.9962 16.9602 12.2411 17.7826 12.3519C18.558 12.4557 19.5355 12.4557 20.6986 12.4557H20.8398C22.0029 12.4557 22.9805 12.4557 23.7558 12.3519C24.5783 12.2411 25.3302 11.9962 25.9352 11.3913C26.5403 10.7864 26.7854 10.0349 26.8962 9.21269C27 8.43759 27 7.4604 27 6.29774V6.15933C27 4.99667 27 4.01948 26.8962 3.24437C26.7854 2.42221 26.5403 1.67063 25.9352 1.06577C25.3302 0.460911 24.5783 0.215922 23.7558 0.105193C22.9805 0.00138408 22.0043 0.00138402 20.8412 0.00138402L20.6986 0ZM6.16015 14.5429C4.99708 14.5429 4.01954 14.5429 3.24415 14.6467C2.42169 14.7575 1.66985 15.0025 1.06477 15.6073C0.459692 16.2122 0.214615 16.9638 0.103846 17.7859C5.86733e-08 18.561 0 19.5382 0 20.7009V20.8421C0 22.0047 5.86733e-08 22.9819 0.103846 23.757C0.214615 24.5792 0.459692 25.3308 1.06477 25.9356C1.66985 26.5405 2.42169 26.7855 3.24415 26.8962C4.01954 27 4.99708 27 6.16015 27H6.3C7.46308 27 8.44062 27 9.216 26.8962C10.0385 26.7855 10.7903 26.5405 11.3954 25.9356C12.0005 25.3308 12.2455 24.5792 12.3563 23.757C12.4602 22.9819 12.4602 22.0047 12.4602 20.8421V20.7009C12.4602 19.5382 12.4602 18.5624 12.3563 17.7859C12.2455 16.9638 12.0005 16.2122 11.3954 15.6073C10.7903 15.0025 10.0385 14.7575 9.216 14.6467C8.44062 14.5429 7.46308 14.5429 6.3 14.5429H6.16015ZM20.6986 14.5429C19.5355 14.5429 18.558 14.5429 17.7826 14.6467C16.9602 14.7575 16.2083 15.0025 15.6032 15.6073C14.9982 16.2122 14.7531 16.9638 14.6423 17.7859C14.5385 18.561 14.5385 19.5382 14.5385 20.7009V20.8421C14.5385 22.0047 14.5385 22.9819 14.6423 23.757C14.7531 24.5792 14.9982 25.3308 15.6032 25.9356C16.2083 26.5405 16.9602 26.7855 17.7826 26.8962C18.558 27 19.5355 27 20.6986 27H20.8398C22.0029 27 22.9805 27 23.7558 26.8962C24.5783 26.7855 25.3302 26.5405 25.9352 25.9356C26.5403 25.3308 26.7854 24.5792 26.8962 23.757C27 22.9819 27 22.0047 27 20.8421V20.7009C27 19.5382 27 18.5624 26.8962 17.7859C26.7854 16.9638 26.5403 16.2122 25.9352 15.6073C25.3302 15.0025 24.5783 14.7575 23.7558 14.6467C22.9805 14.5429 22.0029 14.5429 20.8412 14.5429H20.6986Z" fill="#9E9E9E"/>
</svg>
