<svg width="12" height="16" viewBox="0 0 12 16" fill="none" xmlns="http://www.w3.org/2000/svg">
<path d="M6 7.6C6.56832 7.6 7.11337 7.38929 7.51523 7.01421C7.91709 6.63914 8.14286 6.13043 8.14286 5.6C8.14286 5.06957 7.91709 4.56086 7.51523 4.18579C7.11337 3.81071 6.56832 3.6 6 3.6C5.43168 3.6 4.88663 3.81071 4.48477 4.18579C4.08291 4.56086 3.85714 5.06957 3.85714 5.6C3.85714 5.86264 3.91257 6.12272 4.02026 6.36537C4.12795 6.60802 4.28579 6.8285 4.48477 7.01421C4.68375 7.19993 4.91998 7.34725 5.17996 7.44776C5.43995 7.54827 5.7186 7.6 6 7.6ZM6 0C7.5913 0 9.11742 0.589998 10.2426 1.6402C11.3679 2.69041 12 4.11479 12 5.6C12 9.8 6 16 6 16C6 16 0 9.8 0 5.6C0 4.11479 0.632141 2.69041 1.75736 1.6402C2.88258 0.589998 4.4087 0 6 0Z" fill="#BD2830"/>
</svg>
