<svg width="28" height="27" viewBox="0 0 28 27" fill="none" xmlns="http://www.w3.org/2000/svg">
<path d="M21.8092 3.29904L19.0092 1.8747C16.5508 0.625352 15.3216 0 14 0C12.6784 0 11.4492 0.623995 8.9908 1.8747L8.5414 2.10395L21.0336 9.0208L26.656 6.29421C25.7516 5.30125 24.2928 4.55923 21.8092 3.29632M27.6472 8.09023L22.05 10.8033V14.9216C22.05 15.1915 21.9394 15.4502 21.7425 15.641C21.5456 15.8318 21.2785 15.939 21 15.939C20.7215 15.939 20.4544 15.8318 20.2575 15.641C20.0606 15.4502 19.95 15.1915 19.95 14.9216V11.8206L15.05 14.1945V27C16.0552 26.7572 17.199 26.1766 19.0092 25.2555L21.8092 23.8312C24.8206 22.2997 26.327 21.5346 27.1642 20.1578C28 18.7823 28 17.069 28 13.6465V13.4878C28 10.9199 28 9.31381 27.6472 8.09023ZM12.95 27V14.1945L0.3528 8.09023C1.33514e-07 9.31381 0 10.9199 0 13.4851V13.6438C0 17.069 -2.00272e-07 18.7823 0.8358 20.1578C1.673 21.5346 3.1794 22.301 6.1908 23.8325L8.9908 25.2555C10.801 26.1766 11.9448 26.7572 12.95 27ZM1.344 6.29557L14 12.427L18.7754 10.1141L6.335 3.22578L6.1908 3.29904C3.7086 4.56059 2.2484 5.3026 1.344 6.29693" fill="#BE2229"/>
</svg>
