<svg width="27" height="27" viewBox="0 0 27 27" fill="none" xmlns="http://www.w3.org/2000/svg">
<path d="M13.5 0C6.048 0 0 6.048 0 13.5C0 20.952 6.048 27 13.5 27C20.952 27 27 20.952 27 13.5C27 6.048 20.952 0 13.5 0ZM13.5 5.4C16.1055 5.4 18.225 7.5195 18.225 10.125C18.225 12.7305 16.1055 14.85 13.5 14.85C10.8945 14.85 8.775 12.7305 8.775 10.125C8.775 7.5195 10.8945 5.4 13.5 5.4ZM13.5 24.3C10.7595 24.3 7.5195 23.193 5.211 20.412C7.57596 18.5574 10.4946 17.5495 13.5 17.5495C16.5054 17.5495 19.424 18.5574 21.789 20.412C19.4805 23.193 16.2405 24.3 13.5 24.3Z" fill="#9E9E9E"/>
</svg>
