<svg width="13" height="15" viewBox="0 0 13 15" fill="none" xmlns="http://www.w3.org/2000/svg">
<path d="M10.8333 15C10.2315 15 9.71991 14.7812 9.29861 14.3438C8.87731 13.9062 8.66667 13.375 8.66667 12.75C8.66667 12.675 8.68472 12.5 8.72083 12.225L3.64722 9.15C3.45463 9.3375 3.23194 9.4845 2.97917 9.591C2.72639 9.6975 2.45556 9.7505 2.16667 9.75C1.56481 9.75 1.05324 9.53125 0.631944 9.09375C0.210648 8.65625 0 8.125 0 7.5C0 6.875 0.210648 6.34375 0.631944 5.90625C1.05324 5.46875 1.56481 5.25 2.16667 5.25C2.45556 5.25 2.72639 5.30325 2.97917 5.40975C3.23194 5.51625 3.45463 5.663 3.64722 5.85L8.72083 2.775C8.69676 2.6875 8.68183 2.60325 8.67605 2.52225C8.67028 2.44125 8.66715 2.3505 8.66667 2.25C8.66667 1.625 8.87731 1.09375 9.29861 0.65625C9.71991 0.21875 10.2315 0 10.8333 0C11.4352 0 11.9468 0.21875 12.3681 0.65625C12.7894 1.09375 13 1.625 13 2.25C13 2.875 12.7894 3.40625 12.3681 3.84375C11.9468 4.28125 11.4352 4.5 10.8333 4.5C10.5444 4.5 10.2736 4.44675 10.0208 4.34025C9.76805 4.23375 9.54537 4.087 9.35278 3.9L4.27917 6.975C4.30324 7.0625 4.31841 7.147 4.32467 7.2285C4.33093 7.31 4.33381 7.4005 4.33333 7.5C4.33285 7.5995 4.32996 7.69025 4.32467 7.77225C4.31937 7.85425 4.3042 7.9385 4.27917 8.025L9.35278 11.1C9.54537 10.9125 9.76805 10.7657 10.0208 10.6597C10.2736 10.5537 10.5444 10.5005 10.8333 10.5C11.4352 10.5 11.9468 10.7188 12.3681 11.1562C12.7894 11.5938 13 12.125 13 12.75C13 13.375 12.7894 13.9062 12.3681 14.3438C11.9468 14.7812 11.4352 15 10.8333 15Z" fill="#605454"/>
</svg>
