<svg width="23" height="22" viewBox="0 0 23 22" fill="none" xmlns="http://www.w3.org/2000/svg">
<path d="M11.4619 0.75C11.5096 0.750033 11.5565 0.763364 11.5967 0.789062C11.6369 0.814805 11.6685 0.85214 11.6885 0.895508L14.5576 7.11426L14.7334 7.49512L15.1504 7.54492L21.9521 8.35254H21.9531C22.0005 8.35818 22.0452 8.37797 22.082 8.4082C22.1188 8.4384 22.1464 8.47823 22.1611 8.52344C22.1759 8.56886 22.1771 8.61784 22.165 8.66406C22.1531 8.71008 22.1286 8.7518 22.0938 8.78418L17.0645 13.4355L16.7559 13.7207L16.8379 14.1318L18.1729 20.8506C18.1822 20.8975 18.1785 20.9467 18.1611 20.9912C18.1437 21.0357 18.1138 21.0745 18.0752 21.1025C18.0365 21.1306 17.9901 21.1466 17.9424 21.1494C17.8948 21.1521 17.8473 21.1415 17.8057 21.1182L17.8047 21.1172L11.8281 17.7715L11.4619 17.5664L11.0957 17.7715L5.11816 21.1172C5.07657 21.1404 5.02898 21.1513 4.98145 21.1484C4.93397 21.1455 4.8881 21.1295 4.84961 21.1016C4.81102 21.0735 4.78108 21.0346 4.76367 20.9902C4.74634 20.9459 4.7427 20.8973 4.75195 20.8506L4.75098 20.8496L6.08594 14.1309L6.16797 13.7197L5.85938 13.4346L0.830078 8.78418C0.795163 8.75177 0.769817 8.71017 0.757812 8.66406C0.74581 8.61787 0.747927 8.56882 0.762695 8.52344C0.777509 8.47819 0.804976 8.4384 0.841797 8.4082C0.860311 8.39302 0.880528 8.38036 0.902344 8.37109L0.970703 8.35254L7.77246 7.5459L8.18848 7.49609L8.36426 7.11523L11.2344 0.895508C11.2544 0.85214 11.2869 0.814805 11.3271 0.789062C11.3673 0.763434 11.4143 0.75 11.4619 0.75Z" stroke="#F9C71D" stroke-width="1.5"/>
</svg>
