<svg width="22" height="22" viewBox="0 0 22 22" fill="none" xmlns="http://www.w3.org/2000/svg">
<path d="M13.343 14.2523L12.9259 14.6923C12.9259 14.6923 11.9332 15.7364 9.22445 12.8847C6.5157 10.0329 7.50845 8.98884 7.50845 8.98884L7.77153 8.71109C8.4187 8.02909 8.48011 6.93459 7.91453 6.13525L6.75953 4.50084C6.0592 3.51084 4.70711 3.38067 3.90503 4.22492L2.46678 5.73834C2.06986 6.15725 1.80403 6.699 1.83611 7.30125C1.91861 8.84125 2.57678 12.1532 6.24711 16.0188C10.1402 20.1163 13.7931 20.2794 15.2864 20.1318C15.7594 20.086 16.17 19.8303 16.5009 19.4819L17.8026 18.1106C18.6826 17.1848 18.4351 15.5989 17.3094 14.9518L15.5586 13.9434C14.8198 13.519 13.9205 13.6437 13.343 14.2514" fill="white"/>
<path d="M15.5834 11C16.5801 10.9998 17.5496 10.6748 18.3449 10.074C19.1403 9.47333 19.7182 8.62972 19.9909 7.67106C20.2637 6.7124 20.2166 5.69094 19.8566 4.76149C19.4967 3.83203 18.8436 3.04525 17.9963 2.52036C17.149 1.99547 16.1536 1.7611 15.1611 1.85275C14.1686 1.94441 13.2331 2.3571 12.4962 3.02828C11.7594 3.69946 11.2614 4.59255 11.0777 5.57221C10.8941 6.55186 11.0348 7.56467 11.4785 8.45717C11.5622 8.61929 11.584 8.8063 11.54 8.98333L11.2668 10.0036C11.2397 10.1046 11.2398 10.2109 11.2668 10.312C11.2939 10.413 11.3471 10.5051 11.421 10.579C11.495 10.653 11.5871 10.7061 11.6881 10.7332C11.7891 10.7603 11.8954 10.7603 11.9965 10.7332L13.0167 10.4601C13.1937 10.416 13.3808 10.4379 13.5429 10.5215C14.177 10.8365 14.8754 11.0002 15.5834 11Z" fill="white"/>
</svg>
