<svg width="157" height="42" viewBox="0 0 157 42" fill="none" xmlns="http://www.w3.org/2000/svg">
<path d="M151 0C154.314 0 157 2.68629 157 6V36C157 39.3137 154.314 42 151 42H22.8535C19.5398 42 16.8535 39.3137 16.8535 36V11.6924L0 0H151Z" fill="#7A3185"/>
<path d="M61.3047 26.4238V27.4434H55.457V26.4238H61.3047ZM58.9258 23.9336V30.1445H57.8418V23.9336H58.9258ZM63.5957 30.0918H63.707C64.332 30.0918 64.8398 30.0039 65.2305 29.8281C65.6211 29.6523 65.9219 29.416 66.1328 29.1191C66.3438 28.8223 66.4883 28.4883 66.5664 28.1172C66.6445 27.7422 66.6836 27.3574 66.6836 26.9629V25.6562C66.6836 25.2695 66.6387 24.9258 66.5488 24.625C66.4629 24.3242 66.3418 24.0723 66.1855 23.8691C66.0332 23.666 65.8594 23.5117 65.6641 23.4062C65.4688 23.3008 65.2617 23.248 65.043 23.248C64.793 23.248 64.5684 23.2988 64.3691 23.4004C64.1738 23.498 64.0078 23.6367 63.8711 23.8164C63.7383 23.9961 63.6367 24.207 63.5664 24.4492C63.4961 24.6914 63.4609 24.9551 63.4609 25.2402C63.4609 25.4941 63.4922 25.7402 63.5547 25.9785C63.6172 26.2168 63.7129 26.4316 63.8418 26.623C63.9707 26.8145 64.1309 26.9668 64.3223 27.0801C64.5176 27.1895 64.7461 27.2441 65.0078 27.2441C65.25 27.2441 65.4766 27.1973 65.6875 27.1035C65.9023 27.0059 66.0918 26.875 66.2559 26.7109C66.4238 26.543 66.5566 26.3535 66.6543 26.1426C66.7559 25.9316 66.8145 25.7109 66.8301 25.4805H67.3457C67.3457 25.8047 67.2812 26.125 67.1523 26.4414C67.0273 26.7539 66.8516 27.0391 66.625 27.2969C66.3984 27.5547 66.1328 27.7617 65.8281 27.918C65.5234 28.0703 65.1914 28.1465 64.832 28.1465C64.4102 28.1465 64.0449 28.0645 63.7363 27.9004C63.4277 27.7363 63.1738 27.5176 62.9746 27.2441C62.7793 26.9707 62.6328 26.666 62.5352 26.3301C62.4414 25.9902 62.3945 25.6465 62.3945 25.2988C62.3945 24.8926 62.4512 24.5117 62.5645 24.1562C62.6777 23.8008 62.8457 23.4883 63.0684 23.2188C63.291 22.9453 63.5664 22.7324 63.8945 22.5801C64.2266 22.4277 64.6094 22.3516 65.043 22.3516C65.5312 22.3516 65.9473 22.4492 66.291 22.6445C66.6348 22.8398 66.9141 23.1016 67.1289 23.4297C67.3477 23.7578 67.5078 24.127 67.6094 24.5371C67.7109 24.9473 67.7617 25.3691 67.7617 25.8027V26.1953C67.7617 26.6367 67.7324 27.0859 67.6738 27.543C67.6191 27.9961 67.5117 28.4297 67.3516 28.8438C67.1953 29.2578 66.9668 29.6289 66.666 29.957C66.3652 30.2812 65.9727 30.5391 65.4883 30.7305C65.0078 30.918 64.4141 31.0117 63.707 31.0117H63.5957V30.0918ZM72.8301 22.4219V31H71.7461V23.7754L69.5605 24.5723V23.5938L72.6602 22.4219H72.8301ZM84.373 28.6914C84.373 29.2109 84.252 29.6523 84.0098 30.0156C83.7715 30.375 83.4473 30.6484 83.0371 30.8359C82.6309 31.0234 82.1719 31.1172 81.6602 31.1172C81.1484 31.1172 80.6875 31.0234 80.2773 30.8359C79.8672 30.6484 79.543 30.375 79.3047 30.0156C79.0664 29.6523 78.9473 29.2109 78.9473 28.6914C78.9473 28.3516 79.0117 28.041 79.1406 27.7598C79.2734 27.4746 79.459 27.2266 79.6973 27.0156C79.9395 26.8047 80.2246 26.6426 80.5527 26.5293C80.8848 26.4121 81.25 26.3535 81.6484 26.3535C82.1719 26.3535 82.6387 26.4551 83.0488 26.6582C83.459 26.8574 83.7812 27.1328 84.0156 27.4844C84.2539 27.8359 84.373 28.2383 84.373 28.6914ZM83.2832 28.668C83.2832 28.3516 83.2148 28.0723 83.0781 27.8301C82.9414 27.584 82.75 27.3926 82.5039 27.2559C82.2578 27.1191 81.9727 27.0508 81.6484 27.0508C81.3164 27.0508 81.0293 27.1191 80.7871 27.2559C80.5488 27.3926 80.3633 27.584 80.2305 27.8301C80.0977 28.0723 80.0312 28.3516 80.0312 28.668C80.0312 28.9961 80.0957 29.2773 80.2246 29.5117C80.3574 29.7422 80.5449 29.9199 80.7871 30.0449C81.0332 30.166 81.3242 30.2266 81.6602 30.2266C81.9961 30.2266 82.2852 30.166 82.5273 30.0449C82.7695 29.9199 82.9551 29.7422 83.084 29.5117C83.2168 29.2773 83.2832 28.9961 83.2832 28.668ZM84.1738 24.6895C84.1738 25.1035 84.0645 25.4766 83.8457 25.8086C83.627 26.1406 83.3281 26.4023 82.9492 26.5938C82.5703 26.7852 82.1406 26.8809 81.6602 26.8809C81.1719 26.8809 80.7363 26.7852 80.3535 26.5938C79.9746 26.4023 79.6777 26.1406 79.4629 25.8086C79.248 25.4766 79.1406 25.1035 79.1406 24.6895C79.1406 24.1934 79.248 23.7715 79.4629 23.4238C79.6816 23.0762 79.9805 22.8105 80.3594 22.627C80.7383 22.4434 81.1699 22.3516 81.6543 22.3516C82.1426 22.3516 82.5762 22.4434 82.9551 22.627C83.334 22.8105 83.6309 23.0762 83.8457 23.4238C84.0645 23.7715 84.1738 24.1934 84.1738 24.6895ZM83.0898 24.707C83.0898 24.4219 83.0293 24.1699 82.9082 23.9512C82.7871 23.7324 82.6191 23.5605 82.4043 23.4355C82.1895 23.3066 81.9395 23.2422 81.6543 23.2422C81.3691 23.2422 81.1191 23.3027 80.9043 23.4238C80.6934 23.541 80.5273 23.709 80.4062 23.9277C80.2891 24.1465 80.2305 24.4062 80.2305 24.707C80.2305 25 80.2891 25.2559 80.4062 25.4746C80.5273 25.6934 80.6953 25.8633 80.9102 25.9844C81.125 26.1055 81.375 26.166 81.6602 26.166C81.9453 26.166 82.1934 26.1055 82.4043 25.9844C82.6191 25.8633 82.7871 25.6934 82.9082 25.4746C83.0293 25.2559 83.0898 25 83.0898 24.707ZM91.123 28.6914C91.123 29.2109 91.002 29.6523 90.7598 30.0156C90.5215 30.375 90.1973 30.6484 89.7871 30.8359C89.3809 31.0234 88.9219 31.1172 88.4102 31.1172C87.8984 31.1172 87.4375 31.0234 87.0273 30.8359C86.6172 30.6484 86.293 30.375 86.0547 30.0156C85.8164 29.6523 85.6973 29.2109 85.6973 28.6914C85.6973 28.3516 85.7617 28.041 85.8906 27.7598C86.0234 27.4746 86.209 27.2266 86.4473 27.0156C86.6895 26.8047 86.9746 26.6426 87.3027 26.5293C87.6348 26.4121 88 26.3535 88.3984 26.3535C88.9219 26.3535 89.3887 26.4551 89.7988 26.6582C90.209 26.8574 90.5312 27.1328 90.7656 27.4844C91.0039 27.8359 91.123 28.2383 91.123 28.6914ZM90.0332 28.668C90.0332 28.3516 89.9648 28.0723 89.8281 27.8301C89.6914 27.584 89.5 27.3926 89.2539 27.2559C89.0078 27.1191 88.7227 27.0508 88.3984 27.0508C88.0664 27.0508 87.7793 27.1191 87.5371 27.2559C87.2988 27.3926 87.1133 27.584 86.9805 27.8301C86.8477 28.0723 86.7812 28.3516 86.7812 28.668C86.7812 28.9961 86.8457 29.2773 86.9746 29.5117C87.1074 29.7422 87.2949 29.9199 87.5371 30.0449C87.7832 30.166 88.0742 30.2266 88.4102 30.2266C88.7461 30.2266 89.0352 30.166 89.2773 30.0449C89.5195 29.9199 89.7051 29.7422 89.834 29.5117C89.9668 29.2773 90.0332 28.9961 90.0332 28.668ZM90.9238 24.6895C90.9238 25.1035 90.8145 25.4766 90.5957 25.8086C90.377 26.1406 90.0781 26.4023 89.6992 26.5938C89.3203 26.7852 88.8906 26.8809 88.4102 26.8809C87.9219 26.8809 87.4863 26.7852 87.1035 26.5938C86.7246 26.4023 86.4277 26.1406 86.2129 25.8086C85.998 25.4766 85.8906 25.1035 85.8906 24.6895C85.8906 24.1934 85.998 23.7715 86.2129 23.4238C86.4316 23.0762 86.7305 22.8105 87.1094 22.627C87.4883 22.4434 87.9199 22.3516 88.4043 22.3516C88.8926 22.3516 89.3262 22.4434 89.7051 22.627C90.084 22.8105 90.3809 23.0762 90.5957 23.4238C90.8145 23.7715 90.9238 24.1934 90.9238 24.6895ZM89.8398 24.707C89.8398 24.4219 89.7793 24.1699 89.6582 23.9512C89.5371 23.7324 89.3691 23.5605 89.1543 23.4355C88.9395 23.3066 88.6895 23.2422 88.4043 23.2422C88.1191 23.2422 87.8691 23.3027 87.6543 23.4238C87.4434 23.541 87.2773 23.709 87.1562 23.9277C87.0391 24.1465 86.9805 24.4062 86.9805 24.707C86.9805 25 87.0391 25.2559 87.1562 25.4746C87.2773 25.6934 87.4453 25.8633 87.6602 25.9844C87.875 26.1055 88.125 26.166 88.4102 26.166C88.6953 26.166 88.9434 26.1055 89.1543 25.9844C89.3691 25.8633 89.5371 25.6934 89.6582 25.4746C89.7793 25.2559 89.8398 25 89.8398 24.707ZM98.0078 22.4688V23.0781L94.4746 31H93.332L96.8594 23.3594H92.2422V22.4688H98.0078ZM100.322 30.0918H100.434C101.059 30.0918 101.566 30.0039 101.957 29.8281C102.348 29.6523 102.648 29.416 102.859 29.1191C103.07 28.8223 103.215 28.4883 103.293 28.1172C103.371 27.7422 103.41 27.3574 103.41 26.9629V25.6562C103.41 25.2695 103.365 24.9258 103.275 24.625C103.189 24.3242 103.068 24.0723 102.912 23.8691C102.76 23.666 102.586 23.5117 102.391 23.4062C102.195 23.3008 101.988 23.248 101.77 23.248C101.52 23.248 101.295 23.2988 101.096 23.4004C100.9 23.498 100.734 23.6367 100.598 23.8164C100.465 23.9961 100.363 24.207 100.293 24.4492C100.223 24.6914 100.188 24.9551 100.188 25.2402C100.188 25.4941 100.219 25.7402 100.281 25.9785C100.344 26.2168 100.439 26.4316 100.568 26.623C100.697 26.8145 100.857 26.9668 101.049 27.0801C101.244 27.1895 101.473 27.2441 101.734 27.2441C101.977 27.2441 102.203 27.1973 102.414 27.1035C102.629 27.0059 102.818 26.875 102.982 26.7109C103.15 26.543 103.283 26.3535 103.381 26.1426C103.482 25.9316 103.541 25.7109 103.557 25.4805H104.072C104.072 25.8047 104.008 26.125 103.879 26.4414C103.754 26.7539 103.578 27.0391 103.352 27.2969C103.125 27.5547 102.859 27.7617 102.555 27.918C102.25 28.0703 101.918 28.1465 101.559 28.1465C101.137 28.1465 100.771 28.0645 100.463 27.9004C100.154 27.7363 99.9004 27.5176 99.7012 27.2441C99.5059 26.9707 99.3594 26.666 99.2617 26.3301C99.168 25.9902 99.1211 25.6465 99.1211 25.2988C99.1211 24.8926 99.1777 24.5117 99.291 24.1562C99.4043 23.8008 99.5723 23.4883 99.7949 23.2188C100.018 22.9453 100.293 22.7324 100.621 22.5801C100.953 22.4277 101.336 22.3516 101.77 22.3516C102.258 22.3516 102.674 22.4492 103.018 22.6445C103.361 22.8398 103.641 23.1016 103.855 23.4297C104.074 23.7578 104.234 24.127 104.336 24.5371C104.438 24.9473 104.488 25.3691 104.488 25.8027V26.1953C104.488 26.6367 104.459 27.0859 104.4 27.543C104.346 27.9961 104.238 28.4297 104.078 28.8438C103.922 29.2578 103.693 29.6289 103.393 29.957C103.092 30.2812 102.699 30.5391 102.215 30.7305C101.734 30.918 101.141 31.0117 100.434 31.0117H100.322V30.0918ZM114.561 30.1094V31H108.977V30.2207L111.771 27.1094C112.115 26.7266 112.381 26.4023 112.568 26.1367C112.76 25.8672 112.893 25.627 112.967 25.416C113.045 25.2012 113.084 24.9824 113.084 24.7598C113.084 24.4785 113.025 24.2246 112.908 23.998C112.795 23.7676 112.627 23.584 112.404 23.4473C112.182 23.3105 111.912 23.2422 111.596 23.2422C111.217 23.2422 110.9 23.3164 110.646 23.4648C110.396 23.6094 110.209 23.8125 110.084 24.0742C109.959 24.3359 109.896 24.6367 109.896 24.9766H108.812C108.812 24.4961 108.918 24.0566 109.129 23.6582C109.34 23.2598 109.652 22.9434 110.066 22.709C110.48 22.4707 110.99 22.3516 111.596 22.3516C112.135 22.3516 112.596 22.4473 112.979 22.6387C113.361 22.8262 113.654 23.0918 113.857 23.4355C114.064 23.7754 114.168 24.1738 114.168 24.6309C114.168 24.8809 114.125 25.1348 114.039 25.3926C113.957 25.6465 113.842 25.9004 113.693 26.1543C113.549 26.4082 113.379 26.6582 113.184 26.9043C112.992 27.1504 112.787 27.3926 112.568 27.6309L110.283 30.1094H114.561ZM121.486 28.1289V29.0195H115.322V28.3809L119.143 22.4688H120.027L119.078 24.1797L116.553 28.1289H121.486ZM120.297 22.4688V31H119.213V22.4688H120.297ZM126.033 22.4219V31H124.949V23.7754L122.764 24.5723V23.5938L125.863 22.4219H126.033ZM134.576 26.0547V27.3555C134.576 28.0547 134.514 28.6445 134.389 29.125C134.264 29.6055 134.084 29.9922 133.85 30.2852C133.615 30.5781 133.332 30.791 133 30.9238C132.672 31.0527 132.301 31.1172 131.887 31.1172C131.559 31.1172 131.256 31.0762 130.979 30.9941C130.701 30.9121 130.451 30.7812 130.229 30.6016C130.01 30.418 129.822 30.1797 129.666 29.8867C129.51 29.5938 129.391 29.2383 129.309 28.8203C129.227 28.4023 129.186 27.9141 129.186 27.3555V26.0547C129.186 25.3555 129.248 24.7695 129.373 24.2969C129.502 23.8242 129.684 23.4453 129.918 23.1602C130.152 22.8711 130.434 22.6641 130.762 22.5391C131.094 22.4141 131.465 22.3516 131.875 22.3516C132.207 22.3516 132.512 22.3926 132.789 22.4746C133.07 22.5527 133.32 22.6797 133.539 22.8555C133.758 23.0273 133.943 23.2578 134.096 23.5469C134.252 23.832 134.371 24.1816 134.453 24.5957C134.535 25.0098 134.576 25.4961 134.576 26.0547ZM133.486 27.5312V25.873C133.486 25.4902 133.463 25.1543 133.416 24.8652C133.373 24.5723 133.309 24.3223 133.223 24.1152C133.137 23.9082 133.027 23.7402 132.895 23.6113C132.766 23.4824 132.615 23.3887 132.443 23.3301C132.275 23.2676 132.086 23.2363 131.875 23.2363C131.617 23.2363 131.389 23.2852 131.189 23.3828C130.99 23.4766 130.822 23.627 130.686 23.834C130.553 24.041 130.451 24.3125 130.381 24.6484C130.311 24.9844 130.275 25.3926 130.275 25.873V27.5312C130.275 27.9141 130.297 28.252 130.34 28.5449C130.387 28.8379 130.455 29.0918 130.545 29.3066C130.635 29.5176 130.744 29.6914 130.873 29.8281C131.002 29.9648 131.15 30.0664 131.318 30.1328C131.49 30.1953 131.68 30.2266 131.887 30.2266C132.152 30.2266 132.385 30.1758 132.584 30.0742C132.783 29.9727 132.949 29.8145 133.082 29.5996C133.219 29.3809 133.32 29.1016 133.387 28.7617C133.453 28.418 133.486 28.0078 133.486 27.5312ZM141.35 28.6914C141.35 29.2109 141.229 29.6523 140.986 30.0156C140.748 30.375 140.424 30.6484 140.014 30.8359C139.607 31.0234 139.148 31.1172 138.637 31.1172C138.125 31.1172 137.664 31.0234 137.254 30.8359C136.844 30.6484 136.52 30.375 136.281 30.0156C136.043 29.6523 135.924 29.2109 135.924 28.6914C135.924 28.3516 135.988 28.041 136.117 27.7598C136.25 27.4746 136.436 27.2266 136.674 27.0156C136.916 26.8047 137.201 26.6426 137.529 26.5293C137.861 26.4121 138.227 26.3535 138.625 26.3535C139.148 26.3535 139.615 26.4551 140.025 26.6582C140.436 26.8574 140.758 27.1328 140.992 27.4844C141.23 27.8359 141.35 28.2383 141.35 28.6914ZM140.26 28.668C140.26 28.3516 140.191 28.0723 140.055 27.8301C139.918 27.584 139.727 27.3926 139.48 27.2559C139.234 27.1191 138.949 27.0508 138.625 27.0508C138.293 27.0508 138.006 27.1191 137.764 27.2559C137.525 27.3926 137.34 27.584 137.207 27.8301C137.074 28.0723 137.008 28.3516 137.008 28.668C137.008 28.9961 137.072 29.2773 137.201 29.5117C137.334 29.7422 137.521 29.9199 137.764 30.0449C138.01 30.166 138.301 30.2266 138.637 30.2266C138.973 30.2266 139.262 30.166 139.504 30.0449C139.746 29.9199 139.932 29.7422 140.061 29.5117C140.193 29.2773 140.26 28.9961 140.26 28.668ZM141.15 24.6895C141.15 25.1035 141.041 25.4766 140.822 25.8086C140.604 26.1406 140.305 26.4023 139.926 26.5938C139.547 26.7852 139.117 26.8809 138.637 26.8809C138.148 26.8809 137.713 26.7852 137.33 26.5938C136.951 26.4023 136.654 26.1406 136.439 25.8086C136.225 25.4766 136.117 25.1035 136.117 24.6895C136.117 24.1934 136.225 23.7715 136.439 23.4238C136.658 23.0762 136.957 22.8105 137.336 22.627C137.715 22.4434 138.146 22.3516 138.631 22.3516C139.119 22.3516 139.553 22.4434 139.932 22.627C140.311 22.8105 140.607 23.0762 140.822 23.4238C141.041 23.7715 141.15 24.1934 141.15 24.6895ZM140.066 24.707C140.066 24.4219 140.006 24.1699 139.885 23.9512C139.764 23.7324 139.596 23.5605 139.381 23.4355C139.166 23.3066 138.916 23.2422 138.631 23.2422C138.346 23.2422 138.096 23.3027 137.881 23.4238C137.67 23.541 137.504 23.709 137.383 23.9277C137.266 24.1465 137.207 24.4062 137.207 24.707C137.207 25 137.266 25.2559 137.383 25.4746C137.504 25.6934 137.672 25.8633 137.887 25.9844C138.102 26.1055 138.352 26.166 138.637 26.166C138.922 26.166 139.17 26.1055 139.381 25.9844C139.596 25.8633 139.764 25.6934 139.885 25.4746C140.006 25.2559 140.066 25 140.066 24.707ZM144.092 26.9395L143.225 26.7168L143.652 22.4688H148.029V23.4707H144.572L144.314 25.791C144.471 25.7012 144.668 25.6172 144.906 25.5391C145.148 25.4609 145.426 25.4219 145.738 25.4219C146.133 25.4219 146.486 25.4902 146.799 25.627C147.111 25.7598 147.377 25.9512 147.596 26.2012C147.818 26.4512 147.988 26.752 148.105 27.1035C148.223 27.4551 148.281 27.8477 148.281 28.2812C148.281 28.6914 148.225 29.0684 148.111 29.4121C148.002 29.7559 147.836 30.0566 147.613 30.3145C147.391 30.5684 147.109 30.7656 146.77 30.9062C146.434 31.0469 146.037 31.1172 145.58 31.1172C145.236 31.1172 144.91 31.0703 144.602 30.9766C144.297 30.8789 144.023 30.7324 143.781 30.5371C143.543 30.3379 143.348 30.0918 143.195 29.7988C143.047 29.502 142.953 29.1543 142.914 28.7559H143.945C143.992 29.0762 144.086 29.3457 144.227 29.5645C144.367 29.7832 144.551 29.9492 144.777 30.0625C145.008 30.1719 145.275 30.2266 145.58 30.2266C145.838 30.2266 146.066 30.1816 146.266 30.0918C146.465 30.002 146.633 29.873 146.77 29.7051C146.906 29.5371 147.01 29.334 147.08 29.0957C147.154 28.8574 147.191 28.5898 147.191 28.293C147.191 28.0234 147.154 27.7734 147.08 27.543C147.006 27.3125 146.895 27.1113 146.746 26.9395C146.602 26.7676 146.424 26.6348 146.213 26.541C146.002 26.4434 145.76 26.3945 145.486 26.3945C145.123 26.3945 144.848 26.4434 144.66 26.541C144.477 26.6387 144.287 26.7715 144.092 26.9395Z" fill="white"/>
<path d="M60.1172 15.7393H61.0547C61.0059 16.1885 60.8773 16.5905 60.6689 16.9453C60.4606 17.3001 60.166 17.5817 59.7852 17.79C59.4043 17.9951 58.929 18.0977 58.3594 18.0977C57.9427 18.0977 57.5635 18.0195 57.2217 17.8633C56.8831 17.707 56.5918 17.4857 56.3477 17.1992C56.1035 16.9095 55.9147 16.5628 55.7812 16.1592C55.651 15.7523 55.5859 15.2998 55.5859 14.8018V14.0938C55.5859 13.5957 55.651 13.1449 55.7812 12.7412C55.9147 12.3343 56.1051 11.986 56.3525 11.6963C56.6032 11.4066 56.9043 11.1836 57.2559 11.0273C57.6074 10.8711 58.0029 10.793 58.4424 10.793C58.9795 10.793 59.4336 10.8939 59.8047 11.0957C60.1758 11.2975 60.4639 11.5775 60.6689 11.9355C60.8773 12.2904 61.0059 12.7021 61.0547 13.1709H60.1172C60.0716 12.8389 59.987 12.554 59.8633 12.3164C59.7396 12.0755 59.5638 11.89 59.3359 11.7598C59.1081 11.6296 58.8102 11.5645 58.4424 11.5645C58.1266 11.5645 57.8483 11.6247 57.6074 11.7451C57.3698 11.8656 57.1696 12.0365 57.0068 12.2578C56.8473 12.4792 56.7269 12.7445 56.6455 13.0537C56.5641 13.363 56.5234 13.7064 56.5234 14.084V14.8018C56.5234 15.1501 56.5592 15.4772 56.6309 15.7832C56.7057 16.0892 56.818 16.3577 56.9678 16.5889C57.1175 16.82 57.3079 17.0023 57.5391 17.1357C57.7702 17.266 58.0436 17.3311 58.3594 17.3311C58.7598 17.3311 59.0788 17.2676 59.3164 17.1406C59.554 17.0137 59.7331 16.8314 59.8535 16.5938C59.9772 16.3561 60.0651 16.0713 60.1172 15.7393ZM65.4346 16.7793V12.7168H66.3428V18H65.4785L65.4346 16.7793ZM65.6055 15.666L65.9814 15.6562C65.9814 16.0078 65.944 16.3333 65.8691 16.6328C65.7975 16.929 65.6803 17.1862 65.5176 17.4043C65.3548 17.6224 65.1416 17.7933 64.8779 17.917C64.6143 18.0374 64.2936 18.0977 63.916 18.0977C63.6589 18.0977 63.4229 18.0602 63.208 17.9854C62.9964 17.9105 62.8141 17.7949 62.6611 17.6387C62.5081 17.4824 62.3893 17.279 62.3047 17.0283C62.2233 16.7777 62.1826 16.4766 62.1826 16.125V12.7168H63.0859V16.1348C63.0859 16.3724 63.112 16.5693 63.1641 16.7256C63.2194 16.8786 63.2926 17.0007 63.3838 17.0918C63.4782 17.1797 63.5824 17.2415 63.6963 17.2773C63.8135 17.3132 63.9339 17.3311 64.0576 17.3311C64.4417 17.3311 64.7461 17.2578 64.9707 17.1113C65.1953 16.9616 65.3564 16.7614 65.4541 16.5107C65.555 16.2568 65.6055 15.9753 65.6055 15.666ZM70.7959 16.5986C70.7959 16.4684 70.7666 16.348 70.708 16.2373C70.6527 16.1234 70.5371 16.0208 70.3613 15.9297C70.1888 15.8353 69.9284 15.7539 69.5801 15.6855C69.2871 15.6237 69.0218 15.5505 68.7842 15.4658C68.5498 15.3812 68.3496 15.2786 68.1836 15.1582C68.0208 15.0378 67.8955 14.8962 67.8076 14.7334C67.7197 14.5706 67.6758 14.3802 67.6758 14.1621C67.6758 13.9538 67.7214 13.7568 67.8125 13.5713C67.9069 13.3857 68.0387 13.2214 68.208 13.0781C68.3805 12.9349 68.5872 12.8226 68.8281 12.7412C69.069 12.6598 69.3376 12.6191 69.6338 12.6191C70.057 12.6191 70.4183 12.694 70.7178 12.8438C71.0173 12.9935 71.2467 13.1937 71.4062 13.4443C71.5658 13.6917 71.6455 13.9668 71.6455 14.2695H70.7422C70.7422 14.123 70.6982 13.9814 70.6104 13.8447C70.5257 13.7048 70.4004 13.5892 70.2344 13.498C70.0716 13.4069 69.8714 13.3613 69.6338 13.3613C69.3831 13.3613 69.1797 13.4004 69.0234 13.4785C68.8704 13.5534 68.7581 13.6494 68.6865 13.7666C68.6182 13.8838 68.584 14.0075 68.584 14.1377C68.584 14.2354 68.6003 14.3232 68.6328 14.4014C68.6686 14.4762 68.7305 14.5462 68.8184 14.6113C68.9062 14.6732 69.0299 14.7318 69.1895 14.7871C69.349 14.8424 69.5524 14.8978 69.7998 14.9531C70.2327 15.0508 70.5892 15.168 70.8691 15.3047C71.1491 15.4414 71.3574 15.609 71.4941 15.8076C71.6309 16.0062 71.6992 16.2471 71.6992 16.5303C71.6992 16.7614 71.6504 16.973 71.5527 17.165C71.4583 17.3571 71.32 17.5231 71.1377 17.6631C70.9587 17.7998 70.7438 17.9072 70.4932 17.9854C70.2458 18.0602 69.9674 18.0977 69.6582 18.0977C69.1927 18.0977 68.7988 18.0146 68.4766 17.8486C68.1543 17.6826 67.9102 17.4678 67.7441 17.2041C67.5781 16.9404 67.4951 16.6621 67.4951 16.3691H68.4033C68.4163 16.6165 68.488 16.8135 68.6182 16.96C68.7484 17.1032 68.9079 17.2057 69.0967 17.2676C69.2855 17.3262 69.4727 17.3555 69.6582 17.3555C69.9056 17.3555 70.1123 17.3229 70.2783 17.2578C70.4476 17.1927 70.5762 17.1032 70.6641 16.9893C70.752 16.8753 70.7959 16.7451 70.7959 16.5986ZM75.0977 12.7168V13.4102H72.2412V12.7168H75.0977ZM73.208 11.4326H74.1113V16.6914C74.1113 16.8704 74.139 17.0055 74.1943 17.0967C74.2497 17.1878 74.3213 17.248 74.4092 17.2773C74.4971 17.3066 74.5915 17.3213 74.6924 17.3213C74.7673 17.3213 74.8454 17.3148 74.9268 17.3018C75.0114 17.2855 75.0749 17.2725 75.1172 17.2627L75.1221 18C75.0505 18.0228 74.9561 18.0439 74.8389 18.0635C74.7249 18.0863 74.5866 18.0977 74.4238 18.0977C74.2025 18.0977 73.999 18.0537 73.8135 17.9658C73.6279 17.8779 73.4798 17.7314 73.3691 17.5264C73.2617 17.318 73.208 17.0381 73.208 16.6865V11.4326ZM75.8203 15.417V15.3047C75.8203 14.9238 75.8757 14.5706 75.9863 14.2451C76.097 13.9163 76.2565 13.6315 76.4648 13.3906C76.6732 13.1465 76.9255 12.9577 77.2217 12.8242C77.5179 12.6875 77.8499 12.6191 78.2178 12.6191C78.5889 12.6191 78.9225 12.6875 79.2188 12.8242C79.5182 12.9577 79.7721 13.1465 79.9805 13.3906C80.1921 13.6315 80.3532 13.9163 80.4639 14.2451C80.5745 14.5706 80.6299 14.9238 80.6299 15.3047V15.417C80.6299 15.7979 80.5745 16.151 80.4639 16.4766C80.3532 16.8021 80.1921 17.0869 79.9805 17.3311C79.7721 17.5719 79.5199 17.7607 79.2236 17.8975C78.9307 18.0309 78.5986 18.0977 78.2275 18.0977C77.8564 18.0977 77.5228 18.0309 77.2266 17.8975C76.9303 17.7607 76.6764 17.5719 76.4648 17.3311C76.2565 17.0869 76.097 16.8021 75.9863 16.4766C75.8757 16.151 75.8203 15.7979 75.8203 15.417ZM76.7236 15.3047V15.417C76.7236 15.6807 76.7546 15.9297 76.8164 16.1641C76.8783 16.3952 76.971 16.6003 77.0947 16.7793C77.2217 16.9583 77.3796 17.0999 77.5684 17.2041C77.7572 17.305 77.9769 17.3555 78.2275 17.3555C78.4749 17.3555 78.6914 17.305 78.877 17.2041C79.0658 17.0999 79.222 16.9583 79.3457 16.7793C79.4694 16.6003 79.5622 16.3952 79.624 16.1641C79.6891 15.9297 79.7217 15.6807 79.7217 15.417V15.3047C79.7217 15.0443 79.6891 14.7985 79.624 14.5674C79.5622 14.333 79.4678 14.1263 79.3408 13.9473C79.2171 13.765 79.0609 13.6217 78.8721 13.5176C78.6865 13.4134 78.4684 13.3613 78.2178 13.3613C77.9704 13.3613 77.7523 13.4134 77.5635 13.5176C77.3779 13.6217 77.2217 13.765 77.0947 13.9473C76.971 14.1263 76.8783 14.333 76.8164 14.5674C76.7546 14.7985 76.7236 15.0443 76.7236 15.3047ZM82.6611 13.7666V18H81.7529V12.7168H82.6123L82.6611 13.7666ZM82.4756 15.1582L82.0557 15.1436C82.0589 14.7822 82.1061 14.4486 82.1973 14.1426C82.2884 13.8333 82.4235 13.5648 82.6025 13.3369C82.7816 13.109 83.0046 12.9333 83.2715 12.8096C83.5384 12.6826 83.8477 12.6191 84.1992 12.6191C84.4466 12.6191 84.6745 12.6549 84.8828 12.7266C85.0911 12.7949 85.2718 12.904 85.4248 13.0537C85.5778 13.2035 85.6966 13.3955 85.7812 13.6299C85.8659 13.8643 85.9082 14.1475 85.9082 14.4795V18H85.0049V14.5234C85.0049 14.2467 84.9577 14.0254 84.8633 13.8594C84.7721 13.6934 84.6419 13.5729 84.4727 13.498C84.3034 13.4199 84.1048 13.3809 83.877 13.3809C83.61 13.3809 83.387 13.4281 83.208 13.5225C83.029 13.6169 82.8857 13.7471 82.7783 13.9131C82.6709 14.0791 82.5928 14.2695 82.5439 14.4844C82.4984 14.696 82.4756 14.9206 82.4756 15.1582ZM85.8984 14.6602L85.293 14.8457C85.2962 14.556 85.3434 14.2777 85.4346 14.0107C85.529 13.7438 85.6641 13.5062 85.8398 13.2979C86.0189 13.0895 86.2386 12.9251 86.499 12.8047C86.7594 12.681 87.0573 12.6191 87.3926 12.6191C87.6758 12.6191 87.9264 12.6566 88.1445 12.7314C88.3659 12.8063 88.5514 12.9219 88.7012 13.0781C88.8542 13.2311 88.9697 13.4281 89.0479 13.6689C89.126 13.9098 89.165 14.1963 89.165 14.5283V18H88.2568V14.5186C88.2568 14.2223 88.2096 13.9928 88.1152 13.8301C88.0241 13.6641 87.8939 13.5485 87.7246 13.4834C87.5586 13.415 87.36 13.3809 87.1289 13.3809C86.9303 13.3809 86.7546 13.415 86.6016 13.4834C86.4486 13.5518 86.32 13.6462 86.2158 13.7666C86.1117 13.8838 86.0319 14.0189 85.9766 14.1719C85.9245 14.3249 85.8984 14.4876 85.8984 14.6602ZM92.7246 18.0977C92.3568 18.0977 92.0231 18.0358 91.7236 17.9121C91.4274 17.7852 91.1719 17.6077 90.957 17.3799C90.7454 17.152 90.5827 16.8818 90.4688 16.5693C90.3548 16.2568 90.2979 15.915 90.2979 15.5439V15.3389C90.2979 14.9092 90.3613 14.5267 90.4883 14.1914C90.6152 13.8529 90.7878 13.5664 91.0059 13.332C91.224 13.0977 91.4714 12.9202 91.748 12.7998C92.0247 12.6794 92.3112 12.6191 92.6074 12.6191C92.985 12.6191 93.3105 12.6842 93.584 12.8145C93.8607 12.9447 94.0869 13.127 94.2627 13.3613C94.4385 13.5924 94.5687 13.8659 94.6533 14.1816C94.738 14.4941 94.7803 14.8359 94.7803 15.207V15.6123H90.835V14.875H93.877V14.8066C93.8639 14.5723 93.8151 14.3444 93.7305 14.123C93.6491 13.9017 93.5189 13.7194 93.3398 13.5762C93.1608 13.4329 92.9167 13.3613 92.6074 13.3613C92.4023 13.3613 92.2135 13.4053 92.041 13.4932C91.8685 13.5778 91.7204 13.7048 91.5967 13.874C91.473 14.0433 91.377 14.25 91.3086 14.4941C91.2402 14.7383 91.2061 15.0199 91.2061 15.3389V15.5439C91.2061 15.7946 91.2402 16.0306 91.3086 16.252C91.3802 16.4701 91.4827 16.6621 91.6162 16.8281C91.7529 16.9941 91.9173 17.1243 92.1094 17.2188C92.3047 17.3132 92.526 17.3604 92.7734 17.3604C93.0924 17.3604 93.3626 17.2952 93.584 17.165C93.8053 17.0348 93.999 16.8607 94.165 16.6426L94.7119 17.0771C94.598 17.2497 94.4531 17.4141 94.2773 17.5703C94.1016 17.7266 93.8851 17.8535 93.6279 17.9512C93.374 18.0488 93.0729 18.0977 92.7246 18.0977ZM96.7383 13.5469V18H95.835V12.7168H96.7139L96.7383 13.5469ZM98.3887 12.6875L98.3838 13.5273C98.3089 13.5111 98.2373 13.5013 98.1689 13.498C98.1038 13.4915 98.029 13.4883 97.9443 13.4883C97.736 13.4883 97.5521 13.5208 97.3926 13.5859C97.2331 13.651 97.098 13.7422 96.9873 13.8594C96.8766 13.9766 96.7887 14.1165 96.7236 14.2793C96.6618 14.4388 96.6211 14.6146 96.6016 14.8066L96.3477 14.9531C96.3477 14.6341 96.3786 14.3346 96.4404 14.0547C96.5055 13.7747 96.6048 13.5273 96.7383 13.3125C96.8717 13.0944 97.041 12.9251 97.2461 12.8047C97.4544 12.681 97.7018 12.6191 97.9883 12.6191C98.0534 12.6191 98.1283 12.6273 98.2129 12.6436C98.2975 12.6566 98.3561 12.6712 98.3887 12.6875ZM105.63 16.2031C105.63 16.0371 105.604 15.8906 105.552 15.7637C105.503 15.6335 105.415 15.5163 105.288 15.4121C105.164 15.3079 104.992 15.2087 104.771 15.1143C104.552 15.0199 104.276 14.9238 103.94 14.8262C103.589 14.722 103.271 14.6064 102.988 14.4795C102.705 14.3493 102.463 14.2012 102.261 14.0352C102.059 13.8691 101.904 13.6787 101.797 13.4639C101.689 13.249 101.636 13.0033 101.636 12.7266C101.636 12.4499 101.693 12.1943 101.807 11.96C101.921 11.7256 102.083 11.5221 102.295 11.3496C102.51 11.1738 102.765 11.0371 103.062 10.9395C103.358 10.8418 103.688 10.793 104.053 10.793C104.587 10.793 105.039 10.8955 105.41 11.1006C105.785 11.3024 106.069 11.5677 106.265 11.8965C106.46 12.222 106.558 12.5703 106.558 12.9414H105.62C105.62 12.6745 105.563 12.4385 105.449 12.2334C105.335 12.0251 105.163 11.8623 104.932 11.7451C104.701 11.6247 104.408 11.5645 104.053 11.5645C103.717 11.5645 103.441 11.6149 103.223 11.7158C103.005 11.8167 102.842 11.9535 102.734 12.126C102.63 12.2985 102.578 12.4954 102.578 12.7168C102.578 12.8665 102.609 13.0033 102.671 13.127C102.736 13.2474 102.835 13.3597 102.969 13.4639C103.105 13.568 103.278 13.6641 103.486 13.752C103.698 13.8398 103.95 13.9245 104.243 14.0059C104.647 14.1198 104.995 14.2467 105.288 14.3867C105.581 14.5267 105.822 14.6846 106.011 14.8604C106.203 15.0329 106.344 15.2298 106.436 15.4512C106.53 15.6693 106.577 15.9167 106.577 16.1934C106.577 16.4831 106.519 16.7451 106.401 16.9795C106.284 17.2139 106.117 17.4141 105.898 17.5801C105.68 17.7461 105.418 17.8747 105.112 17.9658C104.81 18.0537 104.471 18.0977 104.097 18.0977C103.768 18.0977 103.444 18.0521 103.125 17.9609C102.809 17.8698 102.521 17.7331 102.261 17.5508C102.004 17.3685 101.797 17.1439 101.641 16.877C101.488 16.6068 101.411 16.2943 101.411 15.9395H102.349C102.349 16.1836 102.396 16.3936 102.49 16.5693C102.585 16.7419 102.713 16.8851 102.876 16.999C103.042 17.113 103.229 17.1976 103.438 17.2529C103.649 17.305 103.869 17.3311 104.097 17.3311C104.425 17.3311 104.704 17.2855 104.932 17.1943C105.16 17.1032 105.332 16.973 105.449 16.8037C105.57 16.6344 105.63 16.4342 105.63 16.2031ZM110.874 16.7793V12.7168H111.782V18H110.918L110.874 16.7793ZM111.045 15.666L111.421 15.6562C111.421 16.0078 111.383 16.3333 111.309 16.6328C111.237 16.929 111.12 17.1862 110.957 17.4043C110.794 17.6224 110.581 17.7933 110.317 17.917C110.054 18.0374 109.733 18.0977 109.355 18.0977C109.098 18.0977 108.862 18.0602 108.647 17.9854C108.436 17.9105 108.254 17.7949 108.101 17.6387C107.948 17.4824 107.829 17.279 107.744 17.0283C107.663 16.7777 107.622 16.4766 107.622 16.125V12.7168H108.525V16.1348C108.525 16.3724 108.551 16.5693 108.604 16.7256C108.659 16.8786 108.732 17.0007 108.823 17.0918C108.918 17.1797 109.022 17.2415 109.136 17.2773C109.253 17.3132 109.373 17.3311 109.497 17.3311C109.881 17.3311 110.186 17.2578 110.41 17.1113C110.635 16.9616 110.796 16.7614 110.894 16.5107C110.994 16.2568 111.045 15.9753 111.045 15.666ZM114.062 13.7324V20.0312H113.154V12.7168H113.984L114.062 13.7324ZM117.622 15.3145V15.417C117.622 15.8011 117.576 16.1576 117.485 16.4863C117.394 16.8118 117.261 17.0951 117.085 17.3359C116.912 17.5768 116.699 17.764 116.445 17.8975C116.191 18.0309 115.9 18.0977 115.571 18.0977C115.236 18.0977 114.94 18.0423 114.683 17.9316C114.425 17.821 114.207 17.6598 114.028 17.4482C113.849 17.2367 113.706 16.9827 113.599 16.6865C113.494 16.3903 113.423 16.0566 113.384 15.6855V15.1387C113.423 14.748 113.496 14.3981 113.604 14.0889C113.711 13.7796 113.853 13.516 114.028 13.2979C114.207 13.0765 114.424 12.9089 114.678 12.7949C114.932 12.6777 115.225 12.6191 115.557 12.6191C115.889 12.6191 116.183 12.6842 116.44 12.8145C116.698 12.9414 116.914 13.1237 117.09 13.3613C117.266 13.599 117.397 13.8838 117.485 14.2158C117.576 14.5446 117.622 14.9108 117.622 15.3145ZM116.714 15.417V15.3145C116.714 15.0508 116.686 14.8034 116.631 14.5723C116.576 14.3379 116.489 14.1328 116.372 13.957C116.258 13.778 116.112 13.638 115.933 13.5371C115.754 13.4329 115.54 13.3809 115.293 13.3809C115.065 13.3809 114.867 13.4199 114.697 13.498C114.531 13.5762 114.39 13.682 114.272 13.8154C114.155 13.9456 114.059 14.0954 113.984 14.2646C113.913 14.4307 113.859 14.6032 113.823 14.7822V16.0469C113.888 16.2747 113.979 16.4896 114.097 16.6914C114.214 16.89 114.37 17.0511 114.565 17.1748C114.761 17.2952 115.007 17.3555 115.303 17.3555C115.547 17.3555 115.757 17.305 115.933 17.2041C116.112 17.0999 116.258 16.9583 116.372 16.7793C116.489 16.6003 116.576 16.3952 116.631 16.1641C116.686 15.9297 116.714 15.6807 116.714 15.417ZM119.678 13.7324V20.0312H118.77V12.7168H119.6L119.678 13.7324ZM123.237 15.3145V15.417C123.237 15.8011 123.192 16.1576 123.101 16.4863C123.009 16.8118 122.876 17.0951 122.7 17.3359C122.528 17.5768 122.314 17.764 122.061 17.8975C121.807 18.0309 121.515 18.0977 121.187 18.0977C120.851 18.0977 120.555 18.0423 120.298 17.9316C120.041 17.821 119.823 17.6598 119.644 17.4482C119.465 17.2367 119.321 16.9827 119.214 16.6865C119.11 16.3903 119.038 16.0566 118.999 15.6855V15.1387C119.038 14.748 119.111 14.3981 119.219 14.0889C119.326 13.7796 119.468 13.516 119.644 13.2979C119.823 13.0765 120.039 12.9089 120.293 12.7949C120.547 12.6777 120.84 12.6191 121.172 12.6191C121.504 12.6191 121.799 12.6842 122.056 12.8145C122.313 12.9414 122.529 13.1237 122.705 13.3613C122.881 13.599 123.013 13.8838 123.101 14.2158C123.192 14.5446 123.237 14.9108 123.237 15.3145ZM122.329 15.417V15.3145C122.329 15.0508 122.301 14.8034 122.246 14.5723C122.191 14.3379 122.104 14.1328 121.987 13.957C121.873 13.778 121.727 13.638 121.548 13.5371C121.369 13.4329 121.156 13.3809 120.908 13.3809C120.68 13.3809 120.482 13.4199 120.312 13.498C120.146 13.5762 120.005 13.682 119.888 13.8154C119.771 13.9456 119.674 14.0954 119.6 14.2646C119.528 14.4307 119.474 14.6032 119.438 14.7822V16.0469C119.504 16.2747 119.595 16.4896 119.712 16.6914C119.829 16.89 119.985 17.0511 120.181 17.1748C120.376 17.2952 120.622 17.3555 120.918 17.3555C121.162 17.3555 121.372 17.305 121.548 17.2041C121.727 17.0999 121.873 16.9583 121.987 16.7793C122.104 16.6003 122.191 16.3952 122.246 16.1641C122.301 15.9297 122.329 15.6807 122.329 15.417ZM124.15 15.417V15.3047C124.15 14.9238 124.206 14.5706 124.316 14.2451C124.427 13.9163 124.587 13.6315 124.795 13.3906C125.003 13.1465 125.256 12.9577 125.552 12.8242C125.848 12.6875 126.18 12.6191 126.548 12.6191C126.919 12.6191 127.253 12.6875 127.549 12.8242C127.848 12.9577 128.102 13.1465 128.311 13.3906C128.522 13.6315 128.683 13.9163 128.794 14.2451C128.905 14.5706 128.96 14.9238 128.96 15.3047V15.417C128.96 15.7979 128.905 16.151 128.794 16.4766C128.683 16.8021 128.522 17.0869 128.311 17.3311C128.102 17.5719 127.85 17.7607 127.554 17.8975C127.261 18.0309 126.929 18.0977 126.558 18.0977C126.187 18.0977 125.853 18.0309 125.557 17.8975C125.26 17.7607 125.007 17.5719 124.795 17.3311C124.587 17.0869 124.427 16.8021 124.316 16.4766C124.206 16.151 124.15 15.7979 124.15 15.417ZM125.054 15.3047V15.417C125.054 15.6807 125.085 15.9297 125.146 16.1641C125.208 16.3952 125.301 16.6003 125.425 16.7793C125.552 16.9583 125.71 17.0999 125.898 17.2041C126.087 17.305 126.307 17.3555 126.558 17.3555C126.805 17.3555 127.021 17.305 127.207 17.2041C127.396 17.0999 127.552 16.9583 127.676 16.7793C127.799 16.6003 127.892 16.3952 127.954 16.1641C128.019 15.9297 128.052 15.6807 128.052 15.417V15.3047C128.052 15.0443 128.019 14.7985 127.954 14.5674C127.892 14.333 127.798 14.1263 127.671 13.9473C127.547 13.765 127.391 13.6217 127.202 13.5176C127.017 13.4134 126.799 13.3613 126.548 13.3613C126.3 13.3613 126.082 13.4134 125.894 13.5176C125.708 13.6217 125.552 13.765 125.425 13.9473C125.301 14.1263 125.208 14.333 125.146 14.5674C125.085 14.7985 125.054 15.0443 125.054 15.3047ZM130.996 13.5469V18H130.093V12.7168H130.972L130.996 13.5469ZM132.646 12.6875L132.642 13.5273C132.567 13.5111 132.495 13.5013 132.427 13.498C132.362 13.4915 132.287 13.4883 132.202 13.4883C131.994 13.4883 131.81 13.5208 131.65 13.5859C131.491 13.651 131.356 13.7422 131.245 13.8594C131.134 13.9766 131.047 14.1165 130.981 14.2793C130.92 14.4388 130.879 14.6146 130.859 14.8066L130.605 14.9531C130.605 14.6341 130.636 14.3346 130.698 14.0547C130.763 13.7747 130.863 13.5273 130.996 13.3125C131.13 13.0944 131.299 12.9251 131.504 12.8047C131.712 12.681 131.96 12.6191 132.246 12.6191C132.311 12.6191 132.386 12.6273 132.471 12.6436C132.555 12.6566 132.614 12.6712 132.646 12.6875ZM135.938 12.7168V13.4102H133.081V12.7168H135.938ZM134.048 11.4326H134.951V16.6914C134.951 16.8704 134.979 17.0055 135.034 17.0967C135.09 17.1878 135.161 17.248 135.249 17.2773C135.337 17.3066 135.431 17.3213 135.532 17.3213C135.607 17.3213 135.685 17.3148 135.767 17.3018C135.851 17.2855 135.915 17.2725 135.957 17.2627L135.962 18C135.89 18.0228 135.796 18.0439 135.679 18.0635C135.565 18.0863 135.426 18.0977 135.264 18.0977C135.042 18.0977 134.839 18.0537 134.653 17.9658C134.468 17.8779 134.32 17.7314 134.209 17.5264C134.102 17.318 134.048 17.0381 134.048 16.6865V11.4326Z" fill="white"/>
<path d="M42.343 25.2523L41.9259 25.6923C41.9259 25.6923 40.9332 26.7364 38.2244 23.8847C35.5157 21.0329 36.5084 19.9888 36.5084 19.9888L36.7715 19.7111C37.4187 19.0291 37.4801 17.9346 36.9145 17.1353L35.7595 15.5008C35.0592 14.5108 33.7071 14.3807 32.905 15.2249L31.4668 16.7383C31.0699 17.1573 30.804 17.699 30.8361 18.3013C30.9186 19.8413 31.5768 23.1532 35.2471 27.0188C39.1402 31.1163 42.7931 31.2794 44.2864 31.1318C44.7594 31.086 45.17 30.8303 45.5009 30.4819L46.8026 29.1106C47.6826 28.1848 47.4351 26.5989 46.3094 25.9518L44.5586 24.9434C43.8198 24.519 42.9205 24.6437 42.343 25.2514" fill="white"/>
<path d="M44.5834 22C45.5801 21.9998 46.5496 21.6748 47.3449 21.074C48.1403 20.4733 48.7182 19.6297 48.9909 18.6711C49.2637 17.7124 49.2166 16.6909 48.8566 15.7615C48.4967 14.832 47.8436 14.0452 46.9963 13.5204C46.149 12.9955 45.1536 12.7611 44.1611 12.8528C43.1686 12.9444 42.2331 13.3571 41.4962 14.0283C40.7594 14.6995 40.2614 15.5926 40.0777 16.5722C39.8941 17.5519 40.0348 18.5647 40.4785 19.4572C40.5622 19.6193 40.584 19.8063 40.54 19.9833L40.2668 21.0036C40.2397 21.1046 40.2398 21.2109 40.2668 21.312C40.2939 21.413 40.3471 21.5051 40.421 21.579C40.495 21.653 40.5871 21.7061 40.6881 21.7332C40.7891 21.7603 40.8954 21.7603 40.9965 21.7332L42.0167 21.4601C42.1937 21.416 42.3808 21.4379 42.5429 21.5215C43.177 21.8365 43.8754 22.0002 44.5834 22Z" fill="white"/>
</svg>
