<svg width="11" height="12" viewBox="0 0 11 12" fill="none" xmlns="http://www.w3.org/2000/svg">
<path d="M8.8 9.6C8.1895 9.6 7.7 10.134 7.7 10.8C7.7 11.1183 7.81589 11.4235 8.02218 11.6485C8.22847 11.8736 8.50826 12 8.8 12C9.09174 12 9.37153 11.8736 9.57782 11.6485C9.78411 11.4235 9.9 11.1183 9.9 10.8C9.9 10.4817 9.78411 10.1765 9.57782 9.95147C9.37153 9.72643 9.09174 9.6 8.8 9.6ZM0 0V1.2H1.1L3.08 5.754L2.332 7.224C2.2495 7.392 2.2 7.59 2.2 7.8C2.2 8.11826 2.31589 8.42348 2.52218 8.64853C2.72847 8.87357 3.00826 9 3.3 9H9.9V7.8H3.531C3.49453 7.8 3.45956 7.7842 3.43377 7.75607C3.40799 7.72794 3.3935 7.68978 3.3935 7.65C3.3935 7.62 3.399 7.596 3.41 7.578L3.905 6.6H8.0025C8.415 6.6 8.778 6.348 8.965 5.982L10.934 2.1C10.9725 2.004 11 1.902 11 1.8C11 1.64087 10.9421 1.48826 10.8389 1.37574C10.7358 1.26321 10.5959 1.2 10.45 1.2H2.3155L1.7985 0M3.3 9.6C2.6895 9.6 2.2 10.134 2.2 10.8C2.2 11.1183 2.31589 11.4235 2.52218 11.6485C2.72847 11.8736 3.00826 12 3.3 12C3.59174 12 3.87153 11.8736 4.07782 11.6485C4.28411 11.4235 4.4 11.1183 4.4 10.8C4.4 10.4817 4.28411 10.1765 4.07782 9.95147C3.87153 9.72643 3.59174 9.6 3.3 9.6Z" fill="white"/>
</svg>
