<svg width="25" height="25" viewBox="0 0 25 25" fill="none" xmlns="http://www.w3.org/2000/svg">
<path fill-rule="evenodd" clip-rule="evenodd" d="M6.96201 3.2888C10.438 2.90373 13.946 2.90373 17.422 3.2888C19.321 3.5008 20.852 4.9958 21.075 6.9018C21.487 10.4265 21.487 13.9871 21.075 17.5118C20.852 19.4178 19.321 20.9128 17.423 21.1258C13.9466 21.5109 10.4384 21.5109 6.96201 21.1258C5.06301 20.9128 3.53201 19.4178 3.30901 17.5128C2.897 13.9878 2.897 10.4268 3.30901 6.9018C3.53201 4.9958 5.06301 3.5008 6.96201 3.2888ZM17.192 6.2068C16.9268 6.2068 16.6724 6.31216 16.4849 6.4997C16.2974 6.68723 16.192 6.94159 16.192 7.2068C16.192 7.47202 16.2974 7.72637 16.4849 7.91391C16.6724 8.10145 16.9268 8.2068 17.192 8.2068C17.4572 8.2068 17.7116 8.10145 17.8991 7.91391C18.0867 7.72637 18.192 7.47202 18.192 7.2068C18.192 6.94159 18.0867 6.68723 17.8991 6.4997C17.7116 6.31216 17.4572 6.2068 17.192 6.2068ZM7.44201 12.2068C7.44201 10.947 7.94246 9.73884 8.83326 8.84805C9.72405 7.95725 10.9322 7.4568 12.192 7.4568C13.4518 7.4568 14.66 7.95725 15.5508 8.84805C16.4416 9.73884 16.942 10.947 16.942 12.2068C16.942 13.4666 16.4416 14.6748 15.5508 15.5656C14.66 16.4564 13.4518 16.9568 12.192 16.9568C10.9322 16.9568 9.72405 16.4564 8.83326 15.5656C7.94246 14.6748 7.44201 13.4666 7.44201 12.2068Z" fill="#575757"/>
<path d="M12.192 8.90137C11.3162 8.90137 10.4764 9.24969 9.85712 9.86972C9.23787 10.4897 8.88998 11.3307 8.88998 12.2075C8.88998 13.0844 9.23787 13.9253 9.85712 14.5453C10.4764 15.1653 11.3162 15.5137 12.192 15.5137C13.0677 15.5137 13.9076 15.1653 14.5268 14.5453C15.1461 13.9253 15.494 13.0844 15.494 12.2075C15.494 11.3307 15.1461 10.4897 14.5268 9.86972C13.9076 9.24969 13.0677 8.90137 12.192 8.90137Z" fill="#575757"/>
</svg>
