<svg width="9" height="12" viewBox="0 0 9 12" fill="none" xmlns="http://www.w3.org/2000/svg">
<path d="M4.08333 5.54167C3.69656 5.54167 3.32563 5.38802 3.05214 5.11453C2.77865 4.84104 2.625 4.47011 2.625 4.08333C2.625 3.69656 2.77865 3.32563 3.05214 3.05214C3.32563 2.77865 3.69656 2.625 4.08333 2.625C4.47011 2.625 4.84104 2.77865 5.11453 3.05214C5.38802 3.32563 5.54167 3.69656 5.54167 4.08333C5.54167 4.27484 5.50395 4.46448 5.43066 4.64141C5.35737 4.81835 5.24995 4.97911 5.11453 5.11453C4.97911 5.24995 4.81835 5.35737 4.64141 5.43066C4.46448 5.50395 4.27484 5.54167 4.08333 5.54167ZM4.08333 0C3.00037 0 1.96175 0.430207 1.19598 1.19598C0.430207 1.96175 0 3.00037 0 4.08333C0 7.14583 4.08333 11.6667 4.08333 11.6667C4.08333 11.6667 8.16667 7.14583 8.16667 4.08333C8.16667 3.00037 7.73646 1.96175 6.97069 1.19598C6.20491 0.430207 5.1663 0 4.08333 0Z" fill="#747474"/>
</svg>
